<svg width="457" height="78" fill="none" xmlns="http://www.w3.org/2000/svg"><path d="m54.5 53-.1 1.3c-.5 4-1.8 7.9-3.9 11.5-2.1 3.6-5 6.4-8.5 8.4l-4.1 1.6a65 65 0 0 1-4.2 1.1l-3.5.5-3.4.2h-1.2A39.4 39.4 0 0 1 0 66.8l9.3-14.9.2.2.2.2c2.1 2.3 4.5 4.5 7.1 6.4a17 17 0 0 0 9.1 3.2l.3.1.3.1.3.1.3.1 1-.1 1-.2a9.5 9.5 0 0 0 6.1-4l.2-.5.2-.5.3-1.5.1-1.3c0-2.1-.9-3.9-2.7-5.3a22.9 22.9 0 0 0-5.9-3.3l-2.4-.8-2.2-.5-.2-.1-.2-.1c-3.8-.9-7.4-2.4-10.7-4.5-3.3-2.1-5.6-5-6.9-8.9l-.6-2.4-.4-2.7-.1-.9v-.9l.1-1.9.3-1.9c.2-1.5.6-3.1 1.2-4.6.5-1.5 1.2-2.9 2.1-4.2 2.5-4.1 5.7-7 9.6-8.8C20.7.9 24.8 0 29 0l3.1.2 3.2.4a41 41 0 0 1 15.9 6.1L44.8 21a56 56 0 0 0-6.6-4.1 15.9 15.9 0 0 0-7.5-1.7h-1a9 9 0 0 0-5 2.4c-1.5 1.4-2.3 2.8-2.3 4.4l.1.7c0 .2.1.5.3.7.2.5.4 1 .8 1.5l1.3 1.3a14 14 0 0 0 3.7 1.9l5.1 1.7 4.3 1.1 3.5 1c4.3 1.5 7.6 4.1 9.8 7.7 2.2 3.6 3.3 7.4 3.4 11.4v.5l-.2 1.5Zm60 6.2v16.6H69.1v-74h45.4V18H89v12.9h24v15.8H89v12.5h25.5Zm76.6-2.9A31.4 31.4 0 0 1 169 73.9c-4.3.9-8.6 1.5-12.9 1.7l-3.7.1h-23.8v-74h25.1l3.5.1c4.2.2 8.3.8 12.4 1.7 4.1.9 7.8 2.6 11.2 5.1 4.3 3 7.7 7 10.1 12 2.4 5 3.8 10.1 4.1 15.3l.1 1.4v3a42.4 42.4 0 0 1-4 16ZM174.7 38l-.1-.9c-.2-2.9-.9-5.8-2.1-8.5a16.8 16.8 0 0 0-5.1-6.6 13.8 13.8 0 0 0-5.4-2.7c-2-.5-4-.7-6.1-.8h-7.5v40.8l.8.1.8.1.8.1.7.1 2.4-.1 2.4-.2c2-.2 4-.5 5.9-1a15.6 15.6 0 0 0 10.7-9.7c1.2-3.1 1.8-6.3 1.8-9.6V38Zm109.6 3.9-.3 2.4a37.1 37.1 0 0 1-17.7 27 41.8 41.8 0 0 1-21.7 6.2l-1.6-.1-1.6-.1a42.6 42.6 0 0 1-15.3-4.3 37.7 37.7 0 0 1-15.3-14.6 38.5 38.5 0 0 1-5.6-19.7l.1-3c.1-1 .2-2.1.5-3.1a50 50 0 0 1 4.2-12 36.7 36.7 0 0 1 14.9-15.1c6.3-3.5 13-5.2 19.9-5.2l2.8.1 2.8.2a42.2 42.2 0 0 1 16.6 6c5.5 3.6 9.8 8.3 12.8 14.2 3 5.9 4.5 12.1 4.5 18.5v2.6Zm-20.2-4.2-.1-1.4c-.4-3.3-1.4-6.5-3-9.6a18 18 0 0 0-6.7-7.2l-2.3-1-2.3-.8-2.3-.4-2.3-.2c-3.9 0-7.6 1.2-10.9 3.7a19.6 19.6 0 0 0-7 9.9l-.2.5-.1.5-.6 2.1-.5 2.3-.2 1.6-.1 1.6v.9l.1.9c.2 4.1 1.5 8 3.8 11.7a16.1 16.1 0 0 0 10.9 7.7l1.5.3 1.4.2 1.4.1c4.1 0 7.8-1.2 11.1-3.7 3.3-2.4 5.7-5.7 7.1-9.8l.6-2.4.4-2.6.2-1.6.1-1.5v-1.8Zm87.5 38.1-28.1-38.2c-.8-.9-1.5-2-2.2-3.3l-2-4-1.3-3-1.2-2.7a85.6 85.6 0 0 1 1.2 14.7v36.5h-19.5v-74H318l27.9 38a42.9 42.9 0 0 1 3.9 7.1l1.4 3 1.4 2.9-.3-2.4-.3-2.4c-.2-1.5-.3-3.1-.3-4.8l-.1-5V1.9H371v74h-19.4v-.1Zm85.1 0L433 62.5h-28.6l-3.8 13.4h-20l25.4-74h25.2l25.7 74h-20.2v-.1Zm-15.5-52.1-1.1-3.7-.9-3.8-.3-1.3-.2-1.2-.3 1.2-.3 1.3-.1.4-.1.4-.8 3.4-.9 3.3-7.5 24.5h20.1l-7.6-24.5Z" fill="#fff"/></svg>